The.War.Of.The.Gargantuas.1966.XviD-NvadR 
http://www.imdb.com/title/tt0060440/

An experimental lab animal called a gargantua escapes from 
his captors and is suspected to be the creature that is 
killing people all over the countryside. But when the 
gargantua from the lab appears at the same time as the 
evil gargantua, the two begin to battle across Japan.

--------------------- SCREENSHOTS -------------------- 
http://www.postimg.com/40000/photo-39232.jpg
 
http://www.postimg.com/40000/photo-39233.jpg
 
http://www.postimg.com/40000/photo-39234.jpg
 
http://www.postimg.com/40000/photo-39235.jpg
 
http://www.postimg.com/40000/photo-39236.jpg
 
http://www.postimg.com/40000/photo-39237.jpg

   General

      Complete name : The.War.Of.The.Gargantuas.1966.XviD-NvadR.avi
      Format : AVI
      Format/Info : Audio Video Interleave
      File size : 701 MiB
      Duration : 1h 32mn
      Overall bit rate : 1 064 Kbps
      Writing library : VirtualDub-MPEG2 build 24586/release

   Video 

      Format : MPEG-4 Visual
      Format profile : AdvancedSimple@L5
      Format settings, BVOP : Yes
      Format settings, QPel : No
      Format settings, GMC : No warppoints
      Format settings, Matrix : Default (H.263)
      Muxing mode : Packed bitstream
      Codec ID : XVID
      Codec ID/Hint : XviD
      Duration : 1h 32mn
      Bit rate : 942 Kbps
      Width : 640 pixels
      Height : 360 pixels
      Display aspect ratio : 16:9
      Frame rate : 23.976 fps
      Resolution : 24 bits
      Colorimetry : 4:2:0
      Scan type : Progressive
      Bits/(Pixel*Frame) : 0.171
      Stream size : 621 MiB (89%)
      Writing library : XviD 63

   Audio 

      Language : English
      Format : AC-3
      Format/Info : Audio Coding 3
      Codec ID : 2000
      Duration : 1h 32mn
      Bit rate mode : Constant
      Bit rate : 112 Kbps
      Channel(s) : 2 channels
      Channel positions : L R
      Sampling rate : 48.0 KHz
      Stream size : 73.8 MiB (11%)
      Alignment : Aligned on interleaves
      Interleave, duration : 42 ms (1.00 video frame)
      Interleave, preload duration : 512 ms
      
   Encoders Note
   
      This is a rarity, a Japanese Kaiju film released on a
      region 2 DVD (Japanese) with a English only soundtrack
      with Japanese Subs..  I know I am scratching my head on
      this one also, but it was released by Toho DVD.      
      
      
   Source
   
      Region 2 (Japan) DVD9 (NTSC) 720 x 480 29.970 fps 2.35:1
      Color AC3 Digital Dolby 2CH Stereo 192 Kb/s 48.0 KHz

      NO SUBTITLES INCLUDED      
    
-------------- TORRENT STATS -------------- 
http://torrent-stats.info/6e76/9b2c83c0.png